<svg width="8" height="6" viewBox="0 0 8 6" fill="none"
     focusable="false"
     xmlns="http://www.w3.org/2000/svg">
    <path d="M7.81234 4.75005L4.57034 0.732554C4.51095 0.658967 4.42726 0.598116 4.32735 0.55588C4.22744 0.513645 4.11469 0.491455 4.00001 0.491455C3.88532 0.491455 3.77257 0.513645 3.67266 0.55588C3.57275 0.598116 3.48906 0.658967 3.42967 0.732554L0.187672 4.75005C0.126523 4.82589 0.093346 4.91255 0.0915391 5.00116C0.0897323 5.08977 0.11936 5.17715 0.177389 5.25435C0.235419 5.33155 0.319763 5.3958 0.421786 5.44051C0.523808 5.48522 0.639843 5.50879 0.758006 5.5088H7.24201C7.36017 5.50879 7.4762 5.48522 7.57823 5.44051C7.68025 5.3958 7.76459 5.33155 7.82262 5.25435C7.88065 5.17715 7.91028 5.08977 7.90847 5.00116C7.90667 4.91255 7.87349 4.82589 7.81234 4.75005Z"
          fill="currentColor"/>
</svg>
