<svg width="8" height="6" viewBox="0 0 8 6" fill="none"
     focusable="false"
     xmlns="http://www.w3.org/2000/svg">
    <path d="M7.82267 0.745955C7.76464 0.668741 7.68029 0.604483 7.57826 0.559764C7.47623 0.515044 7.36018 0.491469 7.242 0.491455H0.758003C0.63989 0.491498 0.523912 0.515075 0.421938 0.559773C0.319963 0.604472 0.235653 0.668687 0.177634 0.745848C0.119615 0.823008 0.0899706 0.910344 0.0917339 0.998919C0.0934971 1.08749 0.126605 1.17413 0.187669 1.24996L3.42967 5.26746C3.48905 5.34104 3.57275 5.40189 3.67266 5.44413C3.77257 5.48636 3.88531 5.50855 4 5.50855C4.11469 5.50855 4.22744 5.48636 4.32735 5.44413C4.42726 5.40189 4.51095 5.34104 4.57034 5.26746L7.81234 1.24996C7.87342 1.17416 7.90656 1.08756 7.90838 0.999003C7.91019 0.910449 7.88062 0.823123 7.82267 0.745955Z"
          fill="currentColor"/>
</svg>
