<svg id="Regular" xmlns="http://www.w3.org/2000/svg" viewBox="0 0 24 24">
    <defs>
        <style>.idp-unknown{fill:none;stroke:#8e8e8e;stroke-linecap:round;stroke-linejoin:round;stroke-width:1.5px;}</style>
    </defs>
    <path class="idp-unknown"
          d="M9.75,5.25H2.25a1.5,1.5,0,0,0-1.5,1.5v13.5a1.5,1.5,0,0,0,1.5,1.5h19.5a1.5,1.5,0,0,0,1.5-1.5V6.75a1.5,1.5,0,0,0-1.5-1.5h-7.5"/>
    <path class="idp-unknown" d="M14.25,4.5a2.25,2.25,0,0,0-4.5,0v3a.75.75,0,0,0,.75.75h3a.75.75,0,0,0,.75-.75Z"/>
    <circle class="idp-unknown" cx="8.25" cy="13.875" r="2.625"/>
    <path class="idp-unknown" d="M3.75,21.75a4.5,4.5,0,0,1,9,0Z"/>
    <line class="idp-unknown" x1="14.25" y1="12.75" x2="18.75" y2="12.75"/>
    <line class="idp-unknown" x1="14.25" y1="15.75" x2="20.25" y2="15.75"/>
</svg>